PathFileType	4	(X/Y/Z)	\\147.46.242.158\로컬 디스크 (e)\MOCAP Data\Iguana Capture\iguana\Project 2\Capture day 7\Session 2\Take13.trc
DataRate	CameraRate	NumFrames	NumMarkers	Units	OrigDataRate	OrigDataStartFrame	OrigNumFrames
120.0	120.0	17	23	mm	120.0	1	7542
Frame#	Time	ana:head1			ana:head2			ana:bone1			ana:bone2			ana:bone3			ana:tail1			ana:tail2			ana:tail3			ana:tail4			ana:Rforefoot1			ana:Rforefoot2			ana:Rforefoot3			ana:Lforefoot1			ana:Lforefoot2			ana:Lforefoot3			ana:RhindLeg1			ana:RhindLeg2			ana:RhindLeg3			ana:RhindLeg4			ana:LhindLeg1			ana:LhindLeg2			ana:LhindLeg3			ana:LhindLeg4			
		X1	Y1	Z1	X2	Y2	Z2	X3	Y3	Z3	X4	Y4	Z4	X5	Y5	Z5	X6	Y6	Z6	X7	Y7	Z7	X8	Y8	Z8	X9	Y9	Z9	X10	Y10	Z10	X11	Y11	Z11	X12	Y12	Z12	X13	Y13	Z13	X14	Y14	Z14	X15	Y15	Z15	X16	Y16	Z16	X17	Y17	Z17	X18	Y18	Z18	X19	Y19	Z19	X20	Y20	Z20	X21	Y21	Z21	X22	Y22	Z22	X23	Y23	Z23	

5380	44.825	429.44125	168.09998	60.59940	420.55435	173.66158	59.53618	408.11490	185.85767	45.00932	402.41571	211.42538	33.99659	398.97626	240.65599	20.13343	391.85660	269.94318	11.59298	376.76563	304.05270	7.34710	355.27606	340.05347	6.16797	333.72336	376.31552	4.31216	399.46884	172.61546	27.75448	388.73813	177.24924	16.68761	392.11636	170.70749	1.73450	422.53085	182.74965	28.46879	429.90750	187.84267	18.12000	428.06985	183.38229	1.49562	389.35208	238.60916	14.65973	375.01151	225.19702	16.13572	374.46906	240.29353	2.17539	373.62772	228.75757	3.92691	407.15302	242.59283	14.47228	423.65170	236.80351	18.55601	420.36942	248.77675	0.81267	430.04745	243.13457	3.05447	
5381	44.833	429.44238	168.04713	60.75099	420.39774	173.70142	59.54703	407.83734	186.54997	45.23537	402.41571	211.42537	33.99659	398.63254	242.73215	20.17469	391.87155	269.91599	11.59298	376.70782	304.01889	7.42151	355.19568	340.56973	6.32339	333.66821	376.30579	4.28249	399.58844	172.65857	27.74891	388.70776	177.33849	16.72167	392.18460	170.69502	1.73656	422.55054	182.79742	28.63045	429.91879	187.86024	18.14704	428.10239	183.40094	1.52469	389.42914	238.52014	14.53986	375.00781	225.20869	16.16896	374.45551	240.23486	2.23155	373.58136	228.80801	3.93555	407.18387	242.50439	14.37648	423.66107	236.79929	18.55173	420.99106	248.96880	1.16886	430.03165	243.20865	3.12830	
5382	44.842	429.47928	168.08650	60.73458	420.52084	173.75633	59.54202	407.88617	186.60126	45.29131	402.44974	211.40489	34.00206	399.06418	242.26120	20.29615	391.81570	269.98642	11.54221	376.75986	304.03616	7.33188	355.17316	340.57324	6.33570	333.71082	376.32483	4.29762	399.48767	172.89464	27.47511	388.69366	177.26288	16.71177	392.13120	170.69412	1.74132	422.53537	182.84248	28.59084	429.91583	187.84381	18.16265	428.07227	183.26271	1.53260	389.46796	238.52521	14.56456	374.95361	225.12209	16.09168	374.46048	240.23668	2.23347	373.60083	228.83597	3.92307	407.15314	242.59291	14.47245	423.68109	236.77090	18.58138	420.42487	248.77075	0.82981	430.04913	243.15863	3.10556	
5383	44.850	429.48740	168.07483	60.70404	420.52209	173.72522	59.54414	407.95810	186.27077	45.13444	402.55121	211.40085	34.00397	398.99838	241.83661	20.17245	391.85110	269.95993	11.57059	376.73483	304.02185	7.36491	355.17838	340.52493	6.32478	333.69156	376.33206	4.29987	399.64661	172.65317	27.70311	388.73947	177.96036	16.47774	392.12555	170.68535	1.74680	422.50845	182.83435	28.48358	429.90884	187.86520	18.12950	428.07037	183.35088	1.51693	389.38705	238.53212	14.60527	374.88940	225.24738	16.13621	374.45337	240.20940	2.31026	373.67792	228.95297	3.69500	407.11749	242.55637	14.47034	423.64185	236.75548	18.55197	420.84158	248.89320	1.11136	430.04462	243.16962	3.11042	
5384	44.858	429.54846	168.06593	60.70867	420.56985	173.73799	59.53256	407.99496	186.25087	45.13493	402.56348	211.40509	34.01962	399.03238	242.03799	20.15462	391.85211	269.96497	11.57652	376.73917	304.02267	7.36748	355.17035	340.56235	6.33843	333.68338	376.33414	4.29879	399.67532	172.64713	27.72517	388.81522	178.00862	16.45743	392.12088	170.68024	1.75197	422.52811	182.84967	28.45149	429.92029	187.88438	18.11911	428.06345	183.34949	1.51454	389.36621	238.50848	14.62558	374.82645	225.29053	16.15042	374.43832	240.06183	2.40865	373.68420	229.00063	3.61460	407.09631	242.54768	14.48604	423.62833	236.73856	18.55366	420.92758	248.91129	1.14784	430.04752	243.15213	3.10257	
5385	44.867	429.65628	168.07152	60.69504	420.67438	173.75481	59.51769	408.07587	186.18465	45.12674	402.56476	211.41132	34.04329	399.07706	242.09866	20.12838	391.85104	269.97089	11.58723	376.74957	304.02869	7.36526	355.17889	340.52844	6.32520	333.67908	376.33551	4.29901	399.70493	172.65326	27.75409	388.89240	177.93530	16.46831	392.11563	170.67220	1.75952	422.56311	182.87910	28.39169	429.94922	187.91553	18.09693	428.06531	183.34659	1.51990	389.32077	238.49123	14.67243	374.76743	225.31570	16.16647	374.43210	239.95450	2.47133	373.67160	229.02930	3.55488	407.07001	242.53984	14.50417	423.61374	236.72903	18.56222	420.97269	248.91359	1.15280	430.04987	243.12634	3.08596	
5386	44.875	429.82367	168.10101	60.66752	420.84512	173.78743	59.46579	408.17361	186.12059	45.11919	402.59579	211.41441	34.07722	399.13080	242.14815	20.13332	391.85007	269.97330	11.60081	376.76132	304.03320	7.36395	355.19965	340.46829	6.29930	333.67477	376.33713	4.29891	399.78250	172.65263	27.79212	388.96713	177.78094	16.50854	392.12674	170.66566	1.77992	422.58420	182.93782	28.29811	430.00247	187.96204	18.07103	428.09869	183.31065	1.55643	389.26050	238.46980	14.73612	374.73209	225.30783	16.18341	374.44858	239.87938	2.47927	373.64728	229.03874	3.52088	407.05035	242.53833	14.54741	423.60092	236.73572	18.58594	421.02505	248.92120	1.16354	430.05209	243.10881	3.07149	
5387	44.883	430.07416	168.17668	60.60390	421.09454	173.84152	59.37930	408.28323	186.08438	45.12331	402.64352	211.41017	34.12339	399.21027	242.11740	20.17824	391.84521	269.97885	11.61206	376.77811	304.04303	7.35787	355.22803	340.37958	6.26273	333.67053	376.34143	4.29875	399.90527	172.66498	27.82106	389.03806	177.62312	16.60037	392.15311	170.65880	1.81384	422.69122	183.00002	28.14657	430.08325	188.04306	18.04062	428.15695	183.24205	1.61376	389.19965	238.45296	14.80664	374.71646	225.26537	16.19627	374.45865	239.83197	2.47653	373.61133	229.03188	3.51171	407.03506	242.54884	14.61113	423.58942	236.75635	18.62034	421.03360	248.91666	1.14620	430.05481	243.09485	3.05756	
5388	44.892	430.40897	168.32393	60.48744	421.44684	173.92912	59.26801	408.43369	186.02184	45.09977	402.71024	211.39919	34.17287	399.26633	242.08556	20.22157	391.84109	269.98175	11.62296	376.78799	304.05652	7.34265	355.26056	340.27859	6.22404	333.67310	376.34802	4.30107	400.11310	172.66736	27.86489	389.12561	177.49149	16.68623	392.20193	170.62892	1.88641	422.87308	183.07114	27.96355	430.19287	188.16594	18.01188	428.24271	183.14873	1.68874	389.13358	238.44855	14.88351	374.68698	225.25235	16.20261	374.46033	239.82867	2.46385	373.58972	229.02032	3.51109	407.02112	242.56885	14.69916	423.57352	236.78938	18.66117	421.03424	248.91093	1.14404	430.05539	243.09552	3.05358	
5389	44.900	430.82233	168.52373	60.32219	421.85120	174.05350	59.12117	408.64044	186.02951	45.09280	402.75537	211.39044	34.22375	399.31961	242.03937	20.28166	391.84167	269.98373	11.63871	376.79367	304.06982	7.33358	355.28195	340.22260	6.20365	333.67578	376.33975	4.32000	400.31052	172.69461	27.94871	389.22452	177.44624	16.73616	392.26617	170.58942	1.97358	423.15924	183.16568	27.80433	430.34213	188.33696	17.98248	428.33942	183.05603	1.76205	389.09286	238.50708	14.99890	374.64581	225.27249	16.20542	374.44623	239.85129	2.46046	373.56870	229.02185	3.49797	407.00262	242.58693	14.78179	423.54407	236.83057	18.70973	421.03238	248.90791	1.14179	430.05426	243.09933	3.05485	
5390	44.908	431.34769	168.75253	60.11138	422.33762	174.19406	58.95867	408.96454	186.05219	45.09483	402.80798	211.38741	34.27717	399.30777	242.03650	20.38387	391.84811	269.98636	11.66307	376.79391	304.08856	7.32549	355.30075	340.18124	6.18843	333.67877	376.33566	4.33496	400.49655	172.73694	28.06131	389.40335	177.41092	16.84382	392.36606	170.50583	2.11203	423.53879	183.28273	27.70121	430.53146	188.55542	17.95230	428.43466	182.97649	1.81920	389.08856	238.61420	15.13009	374.56409	225.36447	16.21045	374.39502	239.83818	2.51458	373.55872	229.02596	3.48167	406.98453	242.60165	14.86895	423.50259	236.87451	18.75345	421.05423	248.90331	1.16576	430.04944	243.10060	3.05752	
5391	44.917	431.99506	169.01161	59.85731	422.91202	174.36089	58.77047	409.35068	186.18990	45.12886	402.86557	211.39081	34.32830	399.16568	242.11989	20.49389	391.85477	269.98773	11.69673	376.79382	304.10913	7.32807	355.29700	340.20670	6.19556	333.68802	376.32693	4.34827	400.76886	172.76775	28.15802	389.62347	177.44411	16.97622	392.46729	170.39676	2.24988	423.99252	183.44469	27.68536	430.72382	188.82631	17.88054	428.49600	182.95432	1.81750	389.11160	238.72641	15.22698	374.44235	225.51100	16.21940	374.31735	239.83473	2.60298	373.53833	229.03368	3.46409	406.98065	242.61212	14.94585	423.45413	236.89899	18.77472	421.07068	248.89934	1.18290	430.04605	243.09607	3.05873	
5392	44.925	432.76572	169.31480	59.55253	423.57379	174.54881	58.57633	409.79587	186.37045	45.16951	402.96210	211.40518	34.38241	398.92676	242.23737	20.62560	391.85809	269.98752	11.73417	376.79907	304.12439	7.33202	355.28333	340.28348	6.22081	333.69781	376.32523	4.35662	401.14398	172.77837	28.24437	389.92105	177.40425	17.15194	392.56326	170.25754	2.37835	424.49268	183.65970	27.72651	430.94568	189.13878	17.77094	428.49023	183.04619	1.72814	389.11517	238.80287	15.30730	374.32523	225.64761	16.23010	374.26193	239.75117	2.69231	373.51755	229.04282	3.45155	406.97839	242.61714	15.02823	423.41379	236.91747	18.78940	421.08163	248.89359	1.21257	430.04727	243.09030	3.05583	
5393	44.933	433.66022	169.64212	59.19970	424.32651	174.75081	58.41565	410.27032	186.58498	45.21628	403.10403	211.42368	34.44899	398.59174	242.27190	20.74500	391.85693	269.98752	11.77161	376.80673	304.13583	7.34249	355.26761	340.37076	6.24329	333.70584	376.32935	4.35302	401.67416	172.78040	28.28559	390.26941	177.26620	17.37516	392.59827	170.03201	2.52580	425.02170	183.92766	27.79502	431.18124	189.49577	17.60779	428.42834	183.25450	1.56300	389.08954	238.82030	15.34621	374.22461	225.75430	16.24274	374.22812	239.70326	2.74205	373.48801	229.04686	3.44727	406.98105	242.62122	15.10420	423.38367	236.93484	18.78029	421.03979	248.87737	1.20550	430.04944	243.08647	3.05107	
5394	44.942	434.68140	170.07326	58.84316	425.22638	174.98283	58.23998	410.78931	186.76393	45.21336	403.29950	211.45290	34.52522	398.22598	242.26733	20.85308	391.85352	269.98865	11.80596	376.81903	304.14102	7.35197	355.26273	340.42249	6.25379	333.71689	376.33759	4.33928	402.38120	172.75522	28.30043	390.67969	176.99818	17.62198	392.59171	169.76009	2.68469	425.44644	184.23814	27.80495	431.43814	189.88103	17.39389	428.33801	183.52081	1.36367	389.02716	238.77133	15.34950	374.14954	225.82765	16.25793	374.21948	239.70247	2.73871	373.46082	229.04901	3.44471	406.98822	242.62177	15.18880	423.41089	236.97691	18.78300	420.99081	248.85968	1.19947	430.05417	243.09091	3.04799	
5395	44.950	435.82611	170.52151	58.49503	426.23203	175.23682	58.05226	411.35501	186.96039	45.22989	403.53342	211.54123	34.63173	397.94321	242.23543	20.95239	391.85126	269.99097	11.83804	376.83612	304.14368	7.36535	355.25974	340.46826	6.26465	333.72195	376.34753	4.32461	403.17203	172.71545	28.30954	391.15067	176.72232	17.91701	392.56479	169.46028	2.87085	425.90869	184.55714	27.74525	431.71661	190.28654	17.14291	428.24155	183.81400	1.16324	388.94476	238.68515	15.34366	374.11441	225.85884	16.27556	374.21710	239.70203	2.73565	373.43790	229.04953	3.44254	407.00076	242.62216	15.27064	423.45465	237.02414	18.76008	420.93338	248.84590	1.19002	430.06226	243.09628	3.04438	
5396	44.958	437.06802	171.00613	58.17662	427.33252	175.52261	57.86542	411.99774	187.10696	45.21252	403.77371	211.68494	34.76880	397.75424	242.28082	21.03259	391.85825	269.99289	11.86774	376.85724	304.14084	7.36318	355.27951	340.44080	6.25504	333.72888	376.35294	4.30618	404.03729	172.69394	28.32201	391.68607	176.41946	18.24378	392.56110	169.14003	3.11834	426.39600	184.88217	27.64392	431.97519	190.71222	16.84176	428.16522	184.08263	0.99099	388.86316	238.57387	15.32729	374.09274	225.89157	16.29595	374.21692	239.70299	2.73438	373.42325	229.04474	3.44131	407.01602	242.57968	15.28969	423.54782	237.10324	18.74961	420.89554	248.87575	1.21447	430.07059	243.10640	3.04724	
